<svg xmlns="http://www.w3.org/2000/svg" xmlns:xlink="http://www.w3.org/1999/xlink" width="500" zoomAndPan="magnify" viewBox="0 0 375 374.999991" height="500" preserveAspectRatio="xMidYMid meet" version="1.0"><defs><g/><clipPath id="79da0efd74"><path d="M 119 42.125 L 297.910156 42.125 L 297.910156 211 L 119 211 Z M 119 42.125 " clip-rule="nonzero"/></clipPath><clipPath id="dbcee2d4cd"><path d="M 77.089844 56 L 270 56 L 270 249.699219 L 77.089844 249.699219 Z M 77.089844 56 " clip-rule="nonzero"/></clipPath></defs><g clip-path="url(#79da0efd74)"><path fill="#ffffff" d="M 119.589844 139.859375 C 119.824219 137.117188 120.96875 134.691406 122.648438 132.476562 C 128.566406 124.683594 141.832031 121.113281 151.113281 126.859375 C 156.578125 130.25 160.964844 134.605469 164.613281 139.761719 C 167.640625 144.046875 170.378906 148.539062 173.328125 153.066406 C 175.386719 150.136719 177.460938 147.132812 179.589844 144.160156 C 197.871094 118.65625 217.941406 94.710938 241.226562 73.601562 C 255.507812 60.65625 271.898438 51.039062 289.53125 43.433594 C 292.578125 42.117188 295.117188 42.628906 297.734375 45.273438 C 296.539062 46.394531 295.347656 47.5 294.164062 48.621094 C 278.765625 63.1875 263.699219 78.097656 250.019531 94.308594 C 242.195312 103.582031 234.9375 113.335938 227.46875 122.910156 C 212.433594 142.195312 201.183594 163.886719 188.402344 184.609375 C 183.46875 192.609375 178.582031 200.640625 173.640625 208.636719 C 171.679688 211.8125 169.097656 211.769531 167.125 208.523438 C 160.734375 197.980469 155.695312 186.78125 150.933594 175.433594 C 146.957031 165.957031 142.488281 156.714844 136.816406 148.105469 C 134.011719 143.847656 130.703125 140.347656 125.269531 139.882812 C 123.433594 139.726562 121.566406 139.859375 119.589844 139.859375 Z M 119.589844 139.859375 " fill-opacity="1" fill-rule="nonzero"/></g><g clip-path="url(#dbcee2d4cd)"><path fill="#ffffff" d="M 257.863281 106.867188 L 242.886719 121.875 C 247.214844 131.445312 249.613281 142.070312 249.613281 153.261719 C 249.613281 195.40625 215.527344 229.558594 173.46875 229.558594 C 131.410156 229.558594 97.320312 195.40625 97.320312 153.261719 C 97.320312 111.121094 131.410156 76.964844 173.46875 76.964844 C 183.984375 76.964844 193.992188 79.101562 203.097656 82.957031 L 218.183594 67.839844 C 204.824219 60.800781 189.605469 56.820312 173.46875 56.820312 C 120.3125 56.820312 77.21875 100 77.21875 153.261719 C 77.21875 206.523438 120.3125 249.699219 173.46875 249.699219 C 226.625 249.699219 269.714844 206.519531 269.714844 153.257812 C 269.714844 136.445312 265.417969 120.628906 257.863281 106.867188 Z M 257.863281 106.867188 " fill-opacity="1" fill-rule="nonzero"/></g><g fill="#ffffff" fill-opacity="1"><g transform="translate(5.064933, 319.994342)"><g><path d="M 21.5 0 L 12.59375 0 L 12.59375 -34.609375 L 1.171875 -34.609375 L 1.171875 -42.03125 L 32.921875 -42.03125 L 32.921875 -34.609375 L 21.5 -34.609375 Z M 21.5 0 "/></g></g></g><g fill="#ffffff" fill-opacity="1"><g transform="translate(39.162798, 319.994342)"><g><path d="M 25.015625 0 L 23.3125 -4.375 L 23.078125 -4.375 C 21.609375 -2.507812 20.09375 -1.21875 18.53125 -0.5 C 16.96875 0.21875 14.929688 0.578125 12.421875 0.578125 C 9.335938 0.578125 6.90625 -0.300781 5.125 -2.0625 C 3.351562 -3.832031 2.46875 -6.347656 2.46875 -9.609375 C 2.46875 -13.015625 3.660156 -15.523438 6.046875 -17.140625 C 8.429688 -18.765625 12.03125 -19.660156 16.84375 -19.828125 L 22.421875 -20.015625 L 22.421875 -21.421875 C 22.421875 -24.671875 20.753906 -26.296875 17.421875 -26.296875 C 14.847656 -26.296875 11.828125 -25.519531 8.359375 -23.96875 L 5.46875 -29.890625 C 9.164062 -31.828125 13.265625 -32.796875 17.765625 -32.796875 C 22.078125 -32.796875 25.382812 -31.859375 27.6875 -29.984375 C 29.988281 -28.109375 31.140625 -25.253906 31.140625 -21.421875 L 31.140625 0 Z M 22.421875 -14.890625 L 19.03125 -14.78125 C 16.476562 -14.695312 14.578125 -14.234375 13.328125 -13.390625 C 12.085938 -12.546875 11.46875 -11.265625 11.46875 -9.546875 C 11.46875 -7.066406 12.882812 -5.828125 15.71875 -5.828125 C 17.75 -5.828125 19.375 -6.410156 20.59375 -7.578125 C 21.8125 -8.753906 22.421875 -10.3125 22.421875 -12.25 Z M 22.421875 -14.890625 "/></g></g></g><g fill="#ffffff" fill-opacity="1"><g transform="translate(74.726936, 319.994342)"><g><path d="M 27.015625 -9.546875 C 27.015625 -6.242188 25.867188 -3.726562 23.578125 -2 C 21.296875 -0.28125 17.875 0.578125 13.3125 0.578125 C 10.96875 0.578125 8.972656 0.414062 7.328125 0.09375 C 5.679688 -0.21875 4.140625 -0.679688 2.703125 -1.296875 L 2.703125 -8.53125 C 4.328125 -7.769531 6.160156 -7.128906 8.203125 -6.609375 C 10.242188 -6.085938 12.039062 -5.828125 13.59375 -5.828125 C 16.78125 -5.828125 18.375 -6.75 18.375 -8.59375 C 18.375 -9.28125 18.160156 -9.835938 17.734375 -10.265625 C 17.316406 -10.703125 16.585938 -11.191406 15.546875 -11.734375 C 14.515625 -12.285156 13.132812 -12.925781 11.40625 -13.65625 C 8.9375 -14.6875 7.117188 -15.644531 5.953125 -16.53125 C 4.796875 -17.414062 3.953125 -18.425781 3.421875 -19.5625 C 2.898438 -20.695312 2.640625 -22.101562 2.640625 -23.78125 C 2.640625 -26.632812 3.742188 -28.84375 5.953125 -30.40625 C 8.171875 -31.96875 11.3125 -32.75 15.375 -32.75 C 19.25 -32.75 23.015625 -31.90625 26.671875 -30.21875 L 24.03125 -23.890625 C 22.425781 -24.578125 20.921875 -25.140625 19.515625 -25.578125 C 18.117188 -26.023438 16.691406 -26.25 15.234375 -26.25 C 12.648438 -26.25 11.359375 -25.546875 11.359375 -24.140625 C 11.359375 -23.359375 11.773438 -22.679688 12.609375 -22.109375 C 13.441406 -21.535156 15.265625 -20.679688 18.078125 -19.546875 C 20.585938 -18.535156 22.425781 -17.585938 23.59375 -16.703125 C 24.769531 -15.816406 25.632812 -14.800781 26.1875 -13.65625 C 26.738281 -12.507812 27.015625 -11.140625 27.015625 -9.546875 Z M 27.015625 -9.546875 "/></g></g></g><g fill="#ffffff" fill-opacity="1"><g transform="translate(103.994749, 319.994342)"><g><path d="M 13.015625 -17.484375 L 16.84375 -22.359375 L 25.84375 -32.140625 L 35.734375 -32.140625 L 22.96875 -18.203125 L 36.515625 0 L 26.390625 0 L 17.140625 -13.015625 L 13.375 -10 L 13.375 0 L 4.59375 0 L 4.59375 -44.734375 L 13.375 -44.734375 L 13.375 -24.78125 L 12.90625 -17.484375 Z M 13.015625 -17.484375 "/></g></g></g><g fill="#ffffff" fill-opacity="1"><g transform="translate(140.507639, 319.994342)"><g><path d="M 14.203125 -22.25 L 17.140625 -22.25 C 19.878906 -22.25 21.925781 -22.789062 23.28125 -23.875 C 24.644531 -24.957031 25.328125 -26.535156 25.328125 -28.609375 C 25.328125 -30.691406 24.753906 -32.234375 23.609375 -33.234375 C 22.472656 -34.234375 20.6875 -34.734375 18.25 -34.734375 L 14.203125 -34.734375 Z M 34.328125 -28.921875 C 34.328125 -24.398438 32.910156 -20.941406 30.078125 -18.546875 C 27.253906 -16.148438 23.238281 -14.953125 18.03125 -14.953125 L 14.203125 -14.953125 L 14.203125 0 L 5.296875 0 L 5.296875 -42.03125 L 18.71875 -42.03125 C 23.8125 -42.03125 27.6875 -40.929688 30.34375 -38.734375 C 33 -36.546875 34.328125 -33.273438 34.328125 -28.921875 Z M 34.328125 -28.921875 "/></g></g></g><g fill="#ffffff" fill-opacity="1"><g transform="translate(177.480534, 319.994342)"><g><path d="M 13.375 0 L 4.59375 0 L 4.59375 -44.734375 L 13.375 -44.734375 Z M 13.375 0 "/></g></g></g><g fill="#ffffff" fill-opacity="1"><g transform="translate(195.449484, 319.994342)"><g><path d="M 25.015625 0 L 23.3125 -4.375 L 23.078125 -4.375 C 21.609375 -2.507812 20.09375 -1.21875 18.53125 -0.5 C 16.96875 0.21875 14.929688 0.578125 12.421875 0.578125 C 9.335938 0.578125 6.90625 -0.300781 5.125 -2.0625 C 3.351562 -3.832031 2.46875 -6.347656 2.46875 -9.609375 C 2.46875 -13.015625 3.660156 -15.523438 6.046875 -17.140625 C 8.429688 -18.765625 12.03125 -19.660156 16.84375 -19.828125 L 22.421875 -20.015625 L 22.421875 -21.421875 C 22.421875 -24.671875 20.753906 -26.296875 17.421875 -26.296875 C 14.847656 -26.296875 11.828125 -25.519531 8.359375 -23.96875 L 5.46875 -29.890625 C 9.164062 -31.828125 13.265625 -32.796875 17.765625 -32.796875 C 22.078125 -32.796875 25.382812 -31.859375 27.6875 -29.984375 C 29.988281 -28.109375 31.140625 -25.253906 31.140625 -21.421875 L 31.140625 0 Z M 22.421875 -14.890625 L 19.03125 -14.78125 C 16.476562 -14.695312 14.578125 -14.234375 13.328125 -13.390625 C 12.085938 -12.546875 11.46875 -11.265625 11.46875 -9.546875 C 11.46875 -7.066406 12.882812 -5.828125 15.71875 -5.828125 C 17.75 -5.828125 19.375 -6.410156 20.59375 -7.578125 C 21.8125 -8.753906 22.421875 -10.3125 22.421875 -12.25 Z M 22.421875 -14.890625 "/></g></g></g><g fill="#ffffff" fill-opacity="1"><g transform="translate(231.013622, 319.994342)"><g><path d="M 34.265625 0 L 25.5 0 L 25.5 -18.765625 C 25.5 -21.085938 25.085938 -22.828125 24.265625 -23.984375 C 23.441406 -25.148438 22.128906 -25.734375 20.328125 -25.734375 C 17.867188 -25.734375 16.09375 -24.910156 15 -23.265625 C 13.914062 -21.628906 13.375 -18.914062 13.375 -15.125 L 13.375 0 L 4.59375 0 L 4.59375 -32.140625 L 11.296875 -32.140625 L 12.46875 -28.03125 L 12.96875 -28.03125 C 13.945312 -29.582031 15.289062 -30.753906 17 -31.546875 C 18.71875 -32.347656 20.671875 -32.75 22.859375 -32.75 C 26.585938 -32.75 29.421875 -31.734375 31.359375 -29.703125 C 33.296875 -27.679688 34.265625 -24.765625 34.265625 -20.953125 Z M 34.265625 0 "/></g></g></g><g fill="#ffffff" fill-opacity="1"><g transform="translate(269.711535, 319.994342)"><g><path d="M 34.265625 0 L 25.5 0 L 25.5 -18.765625 C 25.5 -21.085938 25.085938 -22.828125 24.265625 -23.984375 C 23.441406 -25.148438 22.128906 -25.734375 20.328125 -25.734375 C 17.867188 -25.734375 16.09375 -24.910156 15 -23.265625 C 13.914062 -21.628906 13.375 -18.914062 13.375 -15.125 L 13.375 0 L 4.59375 0 L 4.59375 -32.140625 L 11.296875 -32.140625 L 12.46875 -28.03125 L 12.96875 -28.03125 C 13.945312 -29.582031 15.289062 -30.753906 17 -31.546875 C 18.71875 -32.347656 20.671875 -32.75 22.859375 -32.75 C 26.585938 -32.75 29.421875 -31.734375 31.359375 -29.703125 C 33.296875 -27.679688 34.265625 -24.765625 34.265625 -20.953125 Z M 34.265625 0 "/></g></g></g><g fill="#ffffff" fill-opacity="1"><g transform="translate(308.409466, 319.994342)"><g><path d="M 17.90625 -26.5 C 16.050781 -26.5 14.59375 -25.910156 13.53125 -24.734375 C 12.476562 -23.554688 11.878906 -21.882812 11.734375 -19.71875 L 24.03125 -19.71875 C 23.988281 -21.882812 23.421875 -23.554688 22.328125 -24.734375 C 21.242188 -25.910156 19.769531 -26.5 17.90625 -26.5 Z M 19.140625 0.578125 C 13.972656 0.578125 9.929688 -0.847656 7.015625 -3.703125 C 4.097656 -6.554688 2.640625 -10.601562 2.640625 -15.84375 C 2.640625 -21.226562 3.984375 -25.390625 6.671875 -28.328125 C 9.367188 -31.273438 13.097656 -32.75 17.859375 -32.75 C 22.398438 -32.75 25.929688 -31.453125 28.453125 -28.859375 C 30.984375 -26.273438 32.25 -22.703125 32.25 -18.140625 L 32.25 -13.890625 L 11.53125 -13.890625 C 11.625 -11.390625 12.359375 -9.441406 13.734375 -8.046875 C 15.117188 -6.648438 17.054688 -5.953125 19.546875 -5.953125 C 21.484375 -5.953125 23.3125 -6.148438 25.03125 -6.546875 C 26.757812 -6.953125 28.5625 -7.597656 30.4375 -8.484375 L 30.4375 -1.703125 C 28.90625 -0.929688 27.265625 -0.359375 25.515625 0.015625 C 23.773438 0.390625 21.648438 0.578125 19.140625 0.578125 Z M 19.140625 0.578125 "/></g></g></g><g fill="#ffffff" fill-opacity="1"><g transform="translate(343.19732, 319.994342)"><g><path d="M 22.53125 -32.75 C 23.726562 -32.75 24.71875 -32.660156 25.5 -32.484375 L 24.84375 -24.265625 C 24.132812 -24.453125 23.269531 -24.546875 22.25 -24.546875 C 19.445312 -24.546875 17.265625 -23.828125 15.703125 -22.390625 C 14.148438 -20.953125 13.375 -18.941406 13.375 -16.359375 L 13.375 0 L 4.59375 0 L 4.59375 -32.140625 L 11.234375 -32.140625 L 12.53125 -26.734375 L 12.96875 -26.734375 C 13.957031 -28.535156 15.300781 -29.988281 17 -31.09375 C 18.695312 -32.195312 20.539062 -32.75 22.53125 -32.75 Z M 22.53125 -32.75 "/></g></g></g></svg>